<svg xmlns="http://www.w3.org/2000/svg" width="1080" height="1080" viewBox="0 0 1080 1080" version="1.1">
	<path d="M 0 540.001 L 0 1080.002 540.250 1079.751 L 1080.500 1079.500 1080.751 539.750 L 1081.002 -0 540.501 -0 L 0 0 0 540.001 M 0.496 540.500 C 0.496 837.500, 0.610 958.851, 0.750 810.168 C 0.890 661.485, 0.890 418.485, 0.750 270.168 C 0.610 121.851, 0.496 243.500, 0.496 540.500 M 385.500 186.681 C 375.390 187.329, 354.237 190.198, 345 192.173 C 317.651 198.021, 298.912 207.551, 288.314 221 C 280.245 231.241, 273.511 246.768, 269.554 264.257 C 265.198 283.510, 264.796 290.956, 263.996 367 C 263.351 428.360, 262.955 441.904, 261.598 449 C 254.058 488.444, 238.222 504.406, 200.558 510.525 C 195.576 511.335, 181.713 512.294, 169.750 512.658 L 148 513.318 148 539.659 L 148 566 164.394 566 C 223.636 566, 249.140 580.214, 258.928 618.688 C 262.927 634.407, 263.149 638.546, 263.935 712 C 264.780 790.970, 265.218 797.701, 270.991 820.609 C 279.613 854.818, 295.024 872.180, 325.743 882.294 C 349.083 889.978, 371.760 892.921, 413.750 893.714 L 444 894.285 444 867.256 L 444 840.226 416.250 839.721 C 392.788 839.294, 386.963 838.881, 378.553 837.047 C 354.197 831.737, 343.534 822.137, 338.013 800.551 C 334.044 785.034, 333.776 779.871, 333.022 704.500 C 332.240 626.241, 331.991 622.013, 327.015 602.559 C 319.065 571.476, 300.517 552.683, 267.713 542.475 C 262.880 540.972, 259.103 539.563, 259.320 539.346 C 259.537 539.129, 263.042 538.030, 267.108 536.905 C 276.267 534.369, 288.822 528.554, 296.725 523.187 C 313.677 511.675, 324.793 492.025, 329.358 465.500 C 330.210 460.550, 331.188 454.925, 331.532 453 C 331.877 451.075, 332.522 416.200, 332.966 375.500 C 333.491 327.428, 334.187 298.927, 334.952 294.155 C 340.101 262.061, 349.099 250.101, 372.654 244.047 C 385.729 240.686, 393.428 239.902, 419.250 239.301 L 444 238.725 444 212.362 L 444 186 417.250 186.180 C 402.538 186.279, 388.250 186.505, 385.500 186.681 M 636 212.500 L 636 239 653.750 239.010 C 685.367 239.029, 707.631 242.232, 720.117 248.559 C 736.261 256.740, 743.701 273.625, 746.001 307.306 C 746.534 315.113, 746.977 347.409, 746.985 379.076 C 747.001 439.387, 747.553 450.667, 751.435 470 C 758.724 506.301, 775.922 525.346, 811.478 536.494 L 821.456 539.622 812.478 542.399 C 797.958 546.891, 784.065 554.434, 774.638 562.943 C 762.239 574.136, 753.666 593.249, 749.414 619.178 C 747.988 627.871, 747.604 641.257, 746.978 704 C 746.526 749.303, 745.809 781.047, 745.148 785 C 742.249 802.338, 740.037 809.848, 735.602 817.416 C 725.983 833.830, 704.904 840, 658.449 840 L 636 840 636 867 L 636 894 657.750 893.990 C 714.772 893.964, 753.788 886.763, 776.209 872.126 C 797.084 858.499, 808.372 834.814, 813.577 793.724 C 814.783 784.203, 815.228 766.908, 815.592 715.500 C 816.085 645.775, 816.619 635.521, 820.593 619.500 C 830.371 580.087, 855.682 566.004, 916.750 566.001 L 933 566 933 539.654 L 933 513.309 911.060 512.614 C 878.574 511.585, 864.462 508.957, 849.503 501.151 C 836.660 494.449, 828.257 483.754, 822.608 466.920 C 816.994 450.188, 816.857 448.203, 815.986 370.500 C 815.370 315.530, 814.812 295.543, 813.628 285.997 C 809.387 251.823, 800.804 229.762, 786.258 215.651 C 780.232 209.806, 777.571 207.956, 768.500 203.305 C 745.329 191.426, 711.843 186.026, 661.250 186.009 L 636 186 636 212.500" stroke="none" fill="black" fill-rule="evenodd"/>
</svg>